<svg id="Layer_1" data-name="Layer 1" xmlns="http://www.w3.org/2000/svg" xmlns:xlink="http://www.w3.org/1999/xlink" viewBox="0 0 1920 1080.28"><defs><style>.cls-1{fill:url(#linear-gradient);}.cls-2{fill:#22b573;}.cls-3{fill:#e0e0e0;}.cls-4{opacity:0.64;}.cls-5{opacity:0.5;}.cls-6{fill:url(#linear-gradient-2);}.cls-7{fill:#fff;}.cls-8{opacity:0.05;}.cls-9{fill:#6c63ff;}.cls-10{fill:#ffffa5;}.cls-11{opacity:0.1;isolation:isolate;}.cls-12{fill:#36c;}.cls-13{fill:#f2f2f2;}.cls-14{opacity:0.3;}.cls-15{fill:#030b44;}.cls-16{fill:#4d8af0;}</style><linearGradient id="linear-gradient" x1="1709.5" y1="1289.5" x2="210.5" y2="-209.5" gradientUnits="userSpaceOnUse"><stop offset="0" stop-color="#80ddf0"/><stop offset="0.11" stop-color="#7ed9f0"/><stop offset="0.22" stop-color="#77cff0" stop-opacity="0.98"/><stop offset="0.34" stop-color="#6cbdf0" stop-opacity="0.96"/><stop offset="0.45" stop-color="#5da4f0" stop-opacity="0.93"/><stop offset="0.55" stop-color="#4d8af0" stop-opacity="0.9"/><stop offset="0.99" stop-color="#0071bc" stop-opacity="0.9"/></linearGradient><linearGradient id="linear-gradient-2" x1="409.55" y1="45.36" x2="409.55" y2="708.26" gradientTransform="translate(1919.33 1082) rotate(180)" gradientUnits="userSpaceOnUse"><stop offset="0" stop-color="gray" stop-opacity="0.25"/><stop offset="0.54" stop-color="gray" stop-opacity="0.12"/><stop offset="1" stop-color="gray" stop-opacity="0.1"/></linearGradient></defs><rect class="cls-1" x="0.5" y="0.5" width="1919" height="1079"/><path d="M1919,1V1079H1V1H1919m1-1H0V1080H1920V0Z"/><polygon class="cls-2" points="1216.94 748.9 1229.52 792.47 1204.36 792.47 1179.19 792.47 1191.77 748.9 1204.36 705.32 1216.94 748.9"/><polygon class="cls-2" points="1192.16 743 1204.74 786.58 1179.58 786.58 1154.43 786.58 1167.01 743 1179.58 699.42 1192.16 743"/><polygon class="cls-2" points="1167.4 743 1179.98 786.58 1154.82 786.58 1129.65 786.58 1142.24 743 1154.82 699.42 1167.4 743"/><polygon class="cls-2" points="976.1 769.6 988.68 813.19 963.52 813.19 938.36 813.19 950.94 769.6 963.52 726.03 976.1 769.6"/><polygon class="cls-2" points="1771.3 728.41 1774.33 773.67 1749.74 768.32 1725.17 762.98 1746.71 723.07 1768.25 683.15 1771.3 728.41"/><polygon class="cls-3" points="808.63 1080.11 936.45 769.32 994.1 753.03 1026.68 743.01 1074.3 743.01 1123.17 753.03 1154.5 786.87 1204.63 786.87 1249.75 786.87 1253.51 769.32 1271.05 720.45 1302.38 682.85 1334.96 705.41 1383.84 722.96 1431.46 710.42 1482.84 743.01 1519.18 753.03 1566.8 791.88 1604.4 804.41 1628.53 768.8 1667.06 743.01 1687.11 682.85 1735.98 710.42 1801.15 749.27 1836.24 809.43 1871.33 855.79 1918.95 1080.11 808.63 1080.11"/><g class="cls-4"><path class="cls-3" d="M1736.46,436.92h0a18.87,18.87,0,0,1-18.87,18.87h-155.7A18.87,18.87,0,0,1,1543,436.92h0A18.87,18.87,0,0,1,1561.89,418h155.7A18.87,18.87,0,0,1,1736.46,436.92Z"/><path class="cls-3" d="M1783.64,474.66h0a18.87,18.87,0,0,1-18.87,18.88h-155.7a18.87,18.87,0,0,1-18.87-18.88h0a18.87,18.87,0,0,1,18.87-18.87h155.7A18.87,18.87,0,0,1,1783.64,474.66Z"/><rect class="cls-3" x="1543.02" y="493.54" width="193.44" height="37.75" rx="18.87"/></g><g class="cls-5"><polygon class="cls-6" points="1398.59 373.74 1620.98 373.74 1635.73 1036.64 1383.84 1036.64 1398.59 373.74"/></g><polygon class="cls-7" points="1402.91 373.74 1616.4 373.74 1630.55 1036.64 1388.75 1036.64 1402.91 373.74"/><g class="cls-8"><polygon points="1586.92 373.74 1616.4 373.74 1630.55 1036.64 1572.76 1036.64 1586.92 373.74"/></g><path class="cls-9" d="M1667.12,786.58h0a44.83,44.83,0,0,1-44.83,44.83H1395.83A44.83,44.83,0,0,1,1351,786.58h316.12Z"/><path class="cls-9" d="M1667.12,563.69h0a44.83,44.83,0,0,1-44.83,44.83H1395.83A44.83,44.83,0,0,1,1351,563.69h316.12Z"/><circle class="cls-10" cx="1509.07" cy="468.7" r="57.8"/><rect class="cls-11" x="1393.47" y="831.39" width="232.37" height="3.53"/><rect class="cls-11" x="1398.19" y="608.47" width="224.11" height="2.36"/><path class="cls-3" d="M1445.37,934.61a37.18,37.18,0,0,1,37.16-37.16h0a37.16,37.16,0,0,1,37.15,37.16v102h-74.31Z"/><path class="cls-12" d="M866.21,967c54.55,42.62,131.28,22.42,169.64,7.92a238.64,238.64,0,0,0,23.81-10.28c125-92,202.88-14.15,202.88-14.15C1480,1057.38,1588.7,963.88,1624.19,921c16.78-20.29,40.4-34,66.51-37.31a123.17,123.17,0,0,1,48,3.4c108.28,29.05,179.71,193.22,179.71,193.22H812S790.73,908.06,866.21,967Z"/><g class="cls-4"><path class="cls-13" d="M1220.15,262.72h0a18.88,18.88,0,0,1-18.88,18.88H1045.58a18.88,18.88,0,0,1-18.88-18.88h0a18.87,18.87,0,0,1,18.88-18.87h155.69A18.87,18.87,0,0,1,1220.15,262.72Z"/><rect class="cls-13" x="1073.89" y="281.6" width="193.44" height="37.75" rx="18.87"/><rect class="cls-13" x="1026.7" y="319.34" width="193.44" height="37.75" rx="18.87"/></g><g class="cls-4"><path class="cls-3" d="M1059.74,525.89h0a18.87,18.87,0,0,1-18.87,18.88H885.17a18.87,18.87,0,0,1-18.87-18.88h0A18.87,18.87,0,0,1,885.17,507h155.7A18.87,18.87,0,0,1,1059.74,525.89Z"/><path class="cls-3" d="M1106.92,563.64h0a18.87,18.87,0,0,1-18.87,18.87H932.35a18.87,18.87,0,0,1-18.87-18.87h0a18.87,18.87,0,0,1,18.87-18.87h155.7A18.87,18.87,0,0,1,1106.92,563.64Z"/><path class="cls-3" d="M1059.74,601.38h0a18.87,18.87,0,0,1-18.87,18.88H885.17a18.87,18.87,0,0,1-18.87-18.88h0a18.87,18.87,0,0,1,18.87-18.87h155.7A18.87,18.87,0,0,1,1059.74,601.38Z"/></g><g class="cls-14"><path class="cls-15" d="M1082.08,518.83h41.28C1097.63,546.34,1082.08,518.83,1082.08,518.83Z"/><path class="cls-15" d="M1093.8,499.36l27.07,31.17C1083.22,529.15,1093.8,499.36,1093.8,499.36Z"/></g><g class="cls-14"><path class="cls-15" d="M1229.52,604.93h41.28C1245.07,632.45,1229.52,604.93,1229.52,604.93Z"/><path class="cls-15" d="M1241.25,585.47l27.06,31.17C1230.66,615.26,1241.25,585.47,1241.25,585.47Z"/></g><g class="cls-14"><path class="cls-15" d="M1279.92,281.74h44.28C1296.6,311.31,1279.92,281.74,1279.92,281.74Z"/><path class="cls-15" d="M1292.49,260.86l29,33.44C1281.14,292.81,1292.49,260.86,1292.49,260.86Z"/></g><g class="cls-8"><path d="M1627.54,786.58h-47l-1,44.81h45.11c1.3,0,2.62-.06,3.87-.17Z"/></g><g class="cls-8"><polygon points="1581.9 608.47 1621.42 608.47 1620.45 563.65 1582.86 563.65 1581.9 608.47"/></g><path class="cls-16" d="M749,768.8a1.88,1.88,0,1,0-1.88,1.88A1.88,1.88,0,0,0,749,768.8Z"/><path class="cls-9" d="M1509.66,194c87.95,0,159.24,89,159.24,133.1s-71.29,79.84-159.24,79.84-159.25-35.74-159.25-79.84S1421.71,194,1509.66,194Z"/><g class="cls-8"><path d="M1510.58,194V406.94c88,0,159.25-35.74,159.25-79.84S1598.53,194,1510.58,194Z"/></g></svg>